<svg width="24" height="24" viewBox="0 0 24 24" fill="none" xmlns="http://www.w3.org/2000/svg">
<path d="M19 6.19727C19 5.62182 18.9997 5.24974 18.9766 4.9668C18.9544 4.69595 18.9167 4.59521 18.8916 4.5459C18.7963 4.35882 18.6424 4.20581 18.4531 4.10938C18.4036 4.08414 18.3032 4.04562 18.0322 4.02344C17.7491 4.0003 17.3764 4 16.7998 4H7.2002C6.62366 4 6.25124 4.00127 5.96778 4.02442C5.69598 4.04662 5.59528 4.08422 5.5459 4.10938C5.35779 4.20524 5.20524 4.35779 5.10938 4.5459C5.08422 4.59528 5.04662 4.69598 5.02442 4.96778C5.00127 5.25124 5 5.62366 5 6.2002V10.165C5 16.1207 9.48123 18.8131 11.4863 19.7207C11.6067 19.7752 11.6493 19.7932 11.6875 19.8066C11.7128 19.8155 11.7486 19.8267 11.8311 19.8408C11.8192 19.8388 11.8301 19.8414 11.8711 19.8438C11.9074 19.8459 11.9529 19.8467 12.001 19.8467C12.0489 19.8467 12.0937 19.8459 12.1299 19.8438C12.1709 19.8414 12.1819 19.8388 12.1699 19.8408C12.2518 19.8268 12.287 19.8162 12.3115 19.8076C12.3493 19.7944 12.3907 19.776 12.5107 19.7217H12.5117L12.5137 19.7207C14.5189 18.8131 19 16.1206 19 10.165V6.19727ZM21 10.165C21 17.346 15.5451 20.543 13.3379 21.542L13.3359 21.5439V21.543C13.0932 21.6528 12.8882 21.7462 12.5078 21.8115C12.3429 21.8398 12.1458 21.8467 12.001 21.8467C11.8561 21.8467 11.6583 21.8399 11.4932 21.8115C11.1124 21.7462 10.9063 21.653 10.6611 21.542C8.45359 20.5427 3 17.3454 3 10.165V6.2002C3 5.65664 2.99893 5.18845 3.03028 4.80469C3.06258 4.40942 3.13437 4.01605 3.32715 3.6377C3.61475 3.07334 4.07334 2.61475 4.6377 2.32715C5.01605 2.13437 5.40941 2.06258 5.80469 2.03028C6.18845 1.99893 6.65664 2 7.2002 2H16.7998C17.3433 2 17.8118 1.99893 18.1953 2.03028C18.5905 2.06261 18.9832 2.13448 19.3613 2.32715C19.9246 2.61418 20.3847 3.07225 20.6729 3.6377C20.8655 4.01581 20.9375 4.40889 20.9697 4.80372C21.0011 5.187 21 5.6548 21 6.19727V10.165Z" fill="white"/>
</svg>
