<svg width="24" height="24" viewBox="0 0 24 24" fill="none" xmlns="http://www.w3.org/2000/svg">
<path d="M17.293 5.29295C17.6835 4.90244 18.3166 4.90245 18.7071 5.29295C19.0976 5.68348 19.0976 6.31649 18.7071 6.70702L13.4141 12L18.7071 17.293C19.0976 17.6835 19.0976 18.3165 18.7071 18.707C18.3166 19.0975 17.6835 19.0975 17.293 18.707L12 13.414L6.70708 18.707C6.31655 19.0975 5.68354 19.0975 5.29302 18.707C4.90251 18.3165 4.9025 17.6835 5.29302 17.293L10.586 12L5.29302 6.70702C4.90249 6.31649 4.90249 5.68348 5.29302 5.29295C5.68354 4.90243 6.31655 4.90243 6.70708 5.29295L12 10.5859L17.293 5.29295Z" fill="white"/>
</svg>
